<svg width="16" height="16" viewBox="0 0 16 16" fill="none" xmlns="http://www.w3.org/2000/svg">
<path fill-rule="evenodd" clip-rule="evenodd" d="M8 0.833252C5.518 0.833252 3.5 2.86925 3.5 5.38059C3.5 6.23125 3.87467 7.28659 4.42 8.33925C5.62067 10.6573 7.62067 12.9919 7.62067 12.9919C7.71533 13.1026 7.854 13.1666 8 13.1666C8.146 13.1666 8.28467 13.1026 8.37933 12.9919C8.37933 12.9919 10.3793 10.6573 11.58 8.33925C12.1253 7.28659 12.5 6.23125 12.5 5.38059C12.5 2.86925 10.482 0.833252 8 0.833252ZM8 1.83325C9.93333 1.83325 11.5 3.42459 11.5 5.38059C11.5 6.35792 10.88 7.63125 10.164 8.81859C9.396 10.0919 8.49733 11.2613 8 11.8799C7.50267 11.2613 6.604 10.0919 5.836 8.81859C5.12 7.63125 4.5 6.35792 4.5 5.38059C4.5 3.42459 6.06667 1.83325 8 1.83325Z" fill="#54221A"/>
<path fill-rule="evenodd" clip-rule="evenodd" d="M8.00033 3.5C6.98833 3.5 6.16699 4.32133 6.16699 5.33333C6.16699 6.34533 6.98833 7.16667 8.00033 7.16667C9.01233 7.16667 9.83366 6.34533 9.83366 5.33333C9.83366 4.32133 9.01233 3.5 8.00033 3.5ZM8.00033 4.5C8.46033 4.5 8.83366 4.87333 8.83366 5.33333C8.83366 5.79333 8.46033 6.16667 8.00033 6.16667C7.54033 6.16667 7.16699 5.79333 7.16699 5.33333C7.16699 4.87333 7.54033 4.5 8.00033 4.5Z" fill="#54221A"/>
<path fill-rule="evenodd" clip-rule="evenodd" d="M11.1897 11.5847C11.7317 11.7474 12.1783 11.9487 12.487 12.1847C12.687 12.3367 12.8337 12.4854 12.8337 12.6667C12.8337 12.7734 12.773 12.87 12.6877 12.9667C12.5463 13.126 12.3363 13.2694 12.0763 13.4027C11.1577 13.8727 9.67233 14.1667 8.00033 14.1667C6.32833 14.1667 4.84299 13.8727 3.92433 13.4027C3.66433 13.2694 3.45433 13.126 3.31299 12.9667C3.22766 12.87 3.16699 12.7734 3.16699 12.6667C3.16699 12.4854 3.31366 12.3367 3.51366 12.1847C3.82233 11.9487 4.26899 11.7474 4.81099 11.5847C5.07499 11.5054 5.22499 11.226 5.14566 10.962C5.06633 10.6974 4.78699 10.5474 4.52299 10.6267C3.69766 10.8754 3.05633 11.216 2.67099 11.5927C2.33233 11.9227 2.16699 12.292 2.16699 12.6667C2.16699 13.1347 2.43166 13.6014 2.96966 13.9907C3.91366 14.6734 5.80966 15.1667 8.00033 15.1667C10.191 15.1667 12.087 14.6734 13.031 13.9907C13.569 13.6014 13.8337 13.1347 13.8337 12.6667C13.8337 12.292 13.6683 11.9227 13.3297 11.5927C12.9443 11.216 12.303 10.8754 11.4777 10.6267C11.2137 10.5474 10.9343 10.6974 10.855 10.962C10.7757 11.226 10.9257 11.5054 11.1897 11.5847Z" fill="#54221A"/>
</svg>
