<svg width="12" height="12" viewBox="0 0 12 12" fill="none" xmlns="http://www.w3.org/2000/svg">
<mask id="mask0_1717_1244" style="mask-type:luminance" maskUnits="userSpaceOnUse" x="0" y="0" width="12" height="12">
<path d="M11.9976 0.200195H0.398438V11.7994H11.9976V0.200195Z" fill="white"/>
</mask>
<g mask="url(#mask0_1717_1244)">
<path d="M9.64301 7.4586V4.5407C10.025 4.5028 10.385 4.3448 10.671 4.0895C10.958 3.83417 11.156 3.49461 11.237 3.11964C11.318 2.74467 11.278 2.35357 11.124 2.00257C10.969 1.65156 10.706 1.3587 10.375 1.16609C10.043 0.973481 9.65799 0.891021 9.27699 0.930561C8.89499 0.970111 8.53601 1.12962 8.25101 1.38619C7.96501 1.64275 7.769 1.98315 7.689 2.35847C7.609 2.73379 7.65101 3.1247 7.80701 3.47504L4.61 5.3019C4.449 4.9153 4.159 4.5965 3.789 4.3997C3.419 4.2029 2.992 4.1403 2.582 4.2226C2.171 4.3048 1.801 4.5268 1.536 4.8508C1.27 5.1748 1.125 5.5808 1.125 5.9997C1.125 6.4186 1.27 6.8246 1.536 7.1485C1.801 7.4725 2.171 7.6945 2.582 7.7768C2.992 7.859 3.419 7.7964 3.789 7.5996C4.159 7.4029 4.449 7.0841 4.61 6.6974L7.80701 8.5243C7.65101 8.8742 7.61 9.2645 7.69 9.6391C7.77 10.0137 7.96601 10.3534 8.25101 10.6093C8.53601 10.8653 8.895 11.0244 9.276 11.0638C9.657 11.1032 10.041 11.0208 10.372 10.8285C10.703 10.6363 10.965 10.344 11.12 9.9936C11.274 9.6432 11.314 9.2528 11.233 8.8785C11.152 8.5041 10.955 8.165 10.669 7.9099C10.383 7.6548 10.024 7.4968 9.64301 7.4586ZM4.717 6.3422C4.76 6.1159 4.76 5.8834 4.717 5.6571L7.98801 3.78858C8.13801 3.99881 8.32999 4.1747 8.55299 4.3044C8.77599 4.4341 9.02401 4.5147 9.28101 4.5407V7.4586C9.02401 7.4847 8.77599 7.5652 8.55299 7.6949C8.32999 7.8247 8.13801 8.0005 7.98801 8.2108L4.717 6.3422Z" fill="white"/>
</g>
</svg>
